<svg xmlns="http://www.w3.org/2000/svg" viewBox="0 0 100 100" width="100" height="100">
  <!-- Background Circle -->
  <circle cx="50" cy="50" r="45" fill="#e3f2fd" stroke="#1976d2" stroke-width="2"/>
  
  <!-- Face -->
  <circle cx="50" cy="35" r="15" fill="#fdbcb4"/>
  
  <!-- Hair -->
  <path d="M35 25 Q50 20 65 25 Q68 30 65 35 Q60 30 55 28 Q50 26 45 28 Q40 30 35 35 Q32 30 35 25" fill="#8b4513"/>
  
  <!-- Eyes -->
  <circle cx="45" cy="32" r="2" fill="#333"/>
  <circle cx="55" cy="32" r="2" fill="#333"/>
  <circle cx="46" cy="31" r="0.5" fill="#fff"/>
  <circle cx="56" cy="31" r="0.5" fill="#fff"/>
  
  <!-- Nose -->
  <ellipse cx="50" cy="37" rx="1" ry="2" fill="#f4a28c"/>
  
  <!-- Mouth -->
  <path d="M47 41 Q50 44 53 41" fill="none" stroke="#333" stroke-width="1" stroke-linecap="round"/>
  
  <!-- Body -->
  <path d="M35 50 Q50 45 65 50 L68 85 L32 85 Z" fill="#1976d2"/>
  
  <!-- Collar -->
  <path d="M42 50 Q50 55 58 50 L58 60 L42 60 Z" fill="#0d47a1"/>
  
  <!-- Professional Badge -->
  <rect x="40" y="70" width="20" height="8" rx="2" fill="#fff"/>
  <text x="50" y="76" font-family="Arial, sans-serif" font-size="6" fill="#1976d2" text-anchor="middle">CEO</text>
</svg>